<?xml version="1.0" encoding="UTF-8" standalone="no"?><!DOCTYPE svg PUBLIC "-//W3C//DTD SVG 1.1//EN" "http://www.w3.org/Graphics/SVG/1.1/DTD/svg11.dtd"><svg width="100%" height="100%" viewBox="0 0 292 244" version="1.1" xmlns="http://www.w3.org/2000/svg" xmlns:xlink="http://www.w3.org/1999/xlink" xml:space="preserve" xmlns:serif="http://www.serif.com/" style="fill-rule:evenodd;clip-rule:evenodd;stroke-linejoin:round;stroke-miterlimit:1.41421;"><rect id="Artboard2" x="0" y="-54" width="291.076" height="297.69" style="fill:none;"/><g><g><g><path d="M280.278,242.894l-146.016,0l72.543,-95.793l73.473,95.793Z" style="fill:#f1f2f2;fill-rule:nonzero;"/><path d="M157.513,242.894l-146.016,0l72.543,-95.793l73.473,95.793Z" style="fill:#f1f2f2;fill-rule:nonzero;"/><path d="M218.896,242.894l-146.016,0l72.542,-95.793l73.474,95.793Z" style="fill:#e6e7e8;fill-rule:nonzero;"/><g><path d="M208.926,149.091l0,-25.583l-2.842,0l0,25.583" style="fill:#231f20;fill-rule:nonzero;"/><rect x="206.084" y="123.508" width="21.035" height="13.076" style="fill:#f4661e;fill-rule:nonzero;"/><path d="M86.129,149.659l0,-25.014l-2.843,0l0,25.014" style="fill:#231f20;fill-rule:nonzero;"/><rect x="64.526" y="124.645" width="21.603" height="13.076" style="fill:#f4661e;fill-rule:nonzero;"/><path d="M23.644,206.235l24.745,-24.745l41.95,41.951c0.518,0.518 1.35,0.546 1.902,0.065l78.659,-68.519l41.862,44.781c0.268,0.288 0.641,0.447 1.034,0.443c0.394,-0.005 0.763,-0.173 1.025,-0.467l57.544,-64.476l-2.081,-1.858l-56.528,63.337l-41.738,-44.65c-0.515,-0.55 -1.367,-0.594 -1.935,-0.099l-78.692,68.549l-42.016,-42.017c-0.26,-0.259 -0.619,-0.408 -0.986,-0.408c-0.368,0 -0.727,0.149 -0.987,0.408l-25.731,25.732l1.973,1.973Z" style="fill:#231f20;fill-rule:nonzero;"/><path d="M196.11,231.132l0,11.165l-103.235,0l0,-11.165l103.235,0Z" style="fill:#939598;fill-rule:nonzero;"/><path d="M183.089,194.863l0,36.269l-76.263,0l0,-36.269l76.263,0Z" style="fill:#ffd248;fill-rule:nonzero;"/><rect x="136.587" y="141.85" width="17.671" height="53.012" style="fill:#d1d3d4;fill-rule:nonzero;"/><path d="M197.04,118.135l0,2.901c0,11.672 -7.664,20.814 -17.113,20.814l-25.669,0l-17.671,0l-25.083,0c-9.449,0 -17.699,-9.142 -17.699,-20.814l0,-2.901l0,-42.317l103.235,0l0,42.317Z" style="fill:#ffd248;fill-rule:nonzero;"/><path d="M196.574,74.423l-102.304,0l0,2.79l102.304,0" style="fill:#231f20;fill-rule:nonzero;"/><path d="M154.258,143.245l25.669,0c2.588,0.001 5.061,-0.628 7.292,-1.761c3.348,-1.701 6.151,-4.522 8.117,-8.054c1.966,-3.534 3.099,-7.787 3.099,-12.394l0,-2.901l0,-42.317l-2.79,0l0,45.218c0.001,5.531 -1.819,10.423 -4.693,13.895c-1.437,1.737 -3.134,3.119 -4.996,4.065c-1.864,0.945 -3.892,1.459 -6.029,1.459l-25.669,0l0,2.79Z" style="fill:#231f20;fill-rule:nonzero;"/><path d="M92.41,75.818l0,45.218c0.001,6.167 2.178,11.692 5.647,15.698c1.735,2.003 3.796,3.628 6.077,4.757c2.28,1.127 4.782,1.755 7.37,1.754l25.083,0l0,-2.789l-25.083,-0.001c-2.136,0 -4.208,-0.515 -6.133,-1.466c-2.886,-1.425 -5.433,-3.842 -7.254,-6.944c-1.822,-3.101 -2.916,-6.879 -2.916,-11.009l0,-2.901l0,-42.317l-2.791,0Z" style="fill:#231f20;fill-rule:nonzero;"/><path d="M137.982,194.863l0,-51.618l14.881,0l0,51.618l2.79,0l0,-53.013c0,-0.367 -0.149,-0.726 -0.408,-0.986c-0.26,-0.26 -0.62,-0.409 -0.987,-0.409l-17.671,0c-0.367,0 -0.726,0.149 -0.986,0.409c-0.26,0.26 -0.409,0.619 -0.409,0.986l0,53.013l2.79,0Z" style="fill:#231f20;fill-rule:nonzero;"/><path d="M108.221,231.132l0,-34.874l73.473,0l0,34.874l2.79,0l0,-36.269c0,-0.368 -0.148,-0.727 -0.408,-0.987c-0.26,-0.26 -0.619,-0.409 -0.987,-0.409l-28.831,0l-17.671,0l-29.761,0c-0.367,0 -0.727,0.149 -0.986,0.409c-0.26,0.26 -0.409,0.619 -0.409,0.987l0,36.269l2.79,0Z" style="fill:#231f20;fill-rule:nonzero;"/><path d="M196.574,77.213l19.532,0l0,26.971l1.395,0l-1.359,-0.317l0.808,0.188l-0.807,-0.192l-0.001,0.004l0.808,0.188l-0.807,-0.192l-0.008,0.034c-0.092,0.368 -1.012,3.639 -3.805,6.735c-1.397,1.551 -3.254,3.067 -5.736,4.205c-2.483,1.136 -5.601,1.901 -9.554,1.902l0,2.791c4.489,0.001 8.141,-0.915 11.059,-2.318c4.384,-2.103 7.079,-5.272 8.659,-7.893c1.582,-2.626 2.077,-4.719 2.101,-4.818c0.023,-0.098 0.037,-0.216 0.037,-0.317l0,-28.366c0,-0.368 -0.149,-0.727 -0.409,-0.987c-0.26,-0.259 -0.619,-0.408 -0.986,-0.408l-20.461,0l-0.466,0l0,2.79Z" style="fill:#231f20;fill-rule:nonzero;"/><path d="M94.27,74.423l-0.465,0l-20.46,0c-0.367,0 -0.727,0.149 -0.987,0.408c-0.259,0.26 -0.408,0.619 -0.408,0.987l0,28.366c0,0.101 0.013,0.219 0.036,0.317c0.034,0.129 0.897,3.814 4.074,7.562c1.588,1.87 3.766,3.749 6.686,5.149c2.919,1.403 6.57,2.319 11.059,2.318l0,-2.791c-4.113,-0.001 -7.321,-0.828 -9.851,-2.042c-3.79,-1.82 -6.098,-4.536 -7.477,-6.819c-0.688,-1.14 -1.138,-2.167 -1.412,-2.897c-0.137,-0.365 -0.231,-0.656 -0.289,-0.849c-0.028,-0.097 -0.048,-0.17 -0.06,-0.215l-0.012,-0.046l-0.002,-0.008l-0.535,0.129l0.536,-0.125l-0.001,-0.004l-0.535,0.129l0.536,-0.125l-1.358,0.317l1.395,0l0,-26.971l19.53,0l0,-2.79Z" style="fill:#231f20;fill-rule:nonzero;"/><rect x="115.691" y="202.531" width="58.556" height="21.603" style="fill:#fff;fill-rule:nonzero;"/><rect x="146.391" y="213.901" width="22.172" height="2.843" style="fill:#bcbec0;fill-rule:nonzero;"/><rect x="160.035" y="209.353" width="8.528" height="2.843" style="fill:#bcbec0;fill-rule:nonzero;"/><path d="M121.376,216.743l2.843,0l0,-2.842l-2.843,0" style="fill:#231f20;fill-rule:nonzero;"/><path d="M125.924,216.743l5.685,0l0,-2.842l-5.685,0" style="fill:#231f20;fill-rule:nonzero;"/><path d="M121.376,212.195l6.254,0l0,-2.842l-6.254,0" style="fill:#231f20;fill-rule:nonzero;"/><path d="M111.143,77.459l0,48.116l11.939,-8.371l11.938,8.371l0,-12.09l0,-36.026l-23.877,0Z" style="fill:#31c0d8;fill-rule:nonzero;"/><path d="M121.376,76.322l0,25.014l2.843,0l0,-25.014" style="fill:#231f20;fill-rule:nonzero;"/><path d="M272.072,145.947l-12.166,-12.166l17.921,-5.755l-5.755,17.921Z" style="fill:#31c0d8;fill-rule:nonzero;"/><path d="M29.788,202.46c0,3.424 -2.776,6.199 -6.2,6.199c-3.424,0 -6.2,-2.775 -6.2,-6.199c0,-3.426 2.776,-6.201 6.2,-6.201c3.424,0 6.2,2.775 6.2,6.201Z" style="fill:#939598;fill-rule:nonzero;"/><path d="M238.489,103.042l0,3.979l2.842,0l0,-3.979" style="fill:#231f20;fill-rule:nonzero;"/><path d="M238.489,110.432l0,3.98l2.842,0l0,-3.98" style="fill:#231f20;fill-rule:nonzero;"/><path d="M233.941,111.001l3.411,0l0,-2.843l-3.411,0" style="fill:#231f20;fill-rule:nonzero;"/><path d="M241.9,111.001l3.979,0l0,-2.843l-3.979,0" style="fill:#231f20;fill-rule:nonzero;"/><path d="M84.992,172.968l0,3.98l2.842,0l0,-3.98" style="fill:#231f20;fill-rule:nonzero;"/><path d="M84.992,180.359l0,3.979l2.842,0l0,-3.979" style="fill:#231f20;fill-rule:nonzero;"/><path d="M80.444,180.359l3.411,0l0,-2.843l-3.411,0" style="fill:#231f20;fill-rule:nonzero;"/><path d="M88.971,180.359l3.411,0l0,-2.843l-3.411,0" style="fill:#231f20;fill-rule:nonzero;"/><path d="M178.796,47.328l0,3.98l2.842,0l0,-3.98" style="fill:#231f20;fill-rule:nonzero;"/><path d="M178.796,54.719l0,3.979l2.842,0l0,-3.979" style="fill:#231f20;fill-rule:nonzero;"/><path d="M174.248,54.719l3.979,0l0,-2.843l-3.979,0" style="fill:#231f20;fill-rule:nonzero;"/><path d="M182.775,54.719l3.411,0l0,-2.843l-3.411,0" style="fill:#231f20;fill-rule:nonzero;"/><path d="M273.736,184.907l0,3.979l2.843,0l0,-3.979" style="fill:#231f20;fill-rule:nonzero;"/><path d="M273.736,192.297l0,3.98l2.843,0l0,-3.98" style="fill:#231f20;fill-rule:nonzero;"/><path d="M269.188,192.297l3.411,0l0,-2.842l-3.411,0" style="fill:#231f20;fill-rule:nonzero;"/><path d="M277.716,192.297l3.411,0l0,-2.842l-3.411,0" style="fill:#231f20;fill-rule:nonzero;"/><path d="M218.591,210.49l0,3.411l2.843,0l0,-3.411" style="fill:#231f20;fill-rule:nonzero;"/><path d="M218.591,217.88l0,3.411l2.843,0l0,-3.411" style="fill:#231f20;fill-rule:nonzero;"/><path d="M214.043,217.88l3.98,0l0,-2.842l-3.98,0" style="fill:#231f20;fill-rule:nonzero;"/><path d="M222.571,217.88l3.979,0l0,-2.842l-3.979,0" style="fill:#231f20;fill-rule:nonzero;"/><path d="M46.902,216.743l0,3.98l2.842,0l0,-3.98" style="fill:#231f20;fill-rule:nonzero;"/><path d="M46.902,224.134l0,3.979l2.842,0l0,-3.979" style="fill:#231f20;fill-rule:nonzero;"/><path d="M42.354,224.134l3.411,0l0,-2.843l-3.411,0" style="fill:#231f20;fill-rule:nonzero;"/><path d="M50.313,224.134l3.979,0l0,-2.843l-3.979,0" style="fill:#231f20;fill-rule:nonzero;"/><path d="M32.121,143.974l0,3.98l2.842,0l0,-3.98" style="fill:#231f20;fill-rule:nonzero;"/><path d="M32.121,151.365l0,3.979l2.842,0l0,-3.979" style="fill:#231f20;fill-rule:nonzero;"/><path d="M27.573,151.365l3.411,0l0,-2.843l-3.411,0" style="fill:#231f20;fill-rule:nonzero;"/><path d="M35.532,151.365l3.979,0l0,-2.843l-3.979,0" style="fill:#231f20;fill-rule:nonzero;"/><path d="M51.45,97.925l0,3.411l2.842,0l0,-3.411" style="fill:#231f20;fill-rule:nonzero;"/><path d="M51.45,105.316l0,3.411l2.842,0l0,-3.411" style="fill:#231f20;fill-rule:nonzero;"/><path d="M46.902,105.316l3.411,0l0,-2.843l-3.411,0" style="fill:#231f20;fill-rule:nonzero;"/><path d="M55.429,105.316l3.412,0l0,-2.843l-3.412,0" style="fill:#231f20;fill-rule:nonzero;"/><path d="M119.102,51.308l0,3.411l2.843,0l0,-3.411" style="fill:#231f20;fill-rule:nonzero;"/><path d="M119.102,58.698l0,3.411l2.843,0l0,-3.411" style="fill:#231f20;fill-rule:nonzero;"/><path d="M114.554,58.698l3.98,0l0,-2.842l-3.98,0" style="fill:#231f20;fill-rule:nonzero;"/><path d="M123.082,58.698l3.979,0l0,-2.842l-3.979,0" style="fill:#231f20;fill-rule:nonzero;"/><path d="M242.987,75.463c0,2.115 -1.715,3.83 -3.83,3.83c-2.116,0 -3.83,-1.715 -3.83,-3.83c0,-2.115 1.714,-3.83 3.83,-3.83c2.115,0 3.83,1.715 3.83,3.83Z" style="fill:#f4661e;fill-rule:nonzero;"/><path d="M30.008,121.034c0,2.116 -1.715,3.831 -3.83,3.831c-2.115,0 -3.83,-1.715 -3.83,-3.831c0,-2.114 1.715,-3.83 3.83,-3.83c2.115,0 3.83,1.716 3.83,3.83Z" style="fill:#31c0d8;fill-rule:nonzero;"/><path d="M115.571,155.446c0,2.115 -1.714,3.83 -3.83,3.83c-2.115,0 -3.83,-1.715 -3.83,-3.83c0,-2.115 1.715,-3.83 3.83,-3.83c2.116,0 3.83,1.715 3.83,3.83Z" style="fill:#f4661e;fill-rule:nonzero;"/><path d="M285.769,217.759c0,2.115 -1.715,3.83 -3.83,3.83c-2.116,0 -3.83,-1.715 -3.83,-3.83c0,-2.116 1.714,-3.83 3.83,-3.83c2.115,0 3.83,1.714 3.83,3.83Z" style="fill:#ffd248;fill-rule:nonzero;"/><path d="M153.703,36.401c0,2.115 -1.715,3.83 -3.83,3.83c-2.115,0 -3.83,-1.715 -3.83,-3.83c0,-2.115 1.715,-3.83 3.83,-3.83c2.115,0 3.83,1.715 3.83,3.83Z" style="fill:#ffd248;fill-rule:nonzero;"/><path d="M72.79,60.582c0,2.116 -1.715,3.83 -3.83,3.83c-2.115,0 -3.83,-1.714 -3.83,-3.83c0,-2.115 1.715,-3.83 3.83,-3.83c2.115,0 3.83,1.715 3.83,3.83Z" style="fill:#d1d3d4;fill-rule:nonzero;"/><path d="M239.267,149.866c0,2.115 -1.715,3.83 -3.83,3.83c-2.116,0 -3.831,-1.715 -3.831,-3.83c0,-2.116 1.715,-3.83 3.831,-3.83c2.115,0 3.83,1.714 3.83,3.83Z" style="fill:#d1d3d4;fill-rule:nonzero;"/><path d="M54.189,206.598c0,2.116 -1.715,3.83 -3.83,3.83c-2.115,0 -3.83,-1.714 -3.83,-3.83c0,-2.115 1.715,-3.83 3.83,-3.83c2.115,0 3.83,1.715 3.83,3.83Z" style="fill:#ffd248;fill-rule:nonzero;"/><path d="M247.637,196.368c0,2.115 -1.715,3.83 -3.83,3.83c-2.115,0 -3.83,-1.715 -3.83,-3.83c0,-2.115 1.715,-3.83 3.83,-3.83c2.115,0 3.83,1.715 3.83,3.83Z" style="fill:#31c0d8;fill-rule:nonzero;"/></g></g><path d="M183.089,231.132l0,1.398l11.626,0l0,8.369l-100.445,0l0,-8.369l88.819,0l0,-1.398l0,-1.393l-76.263,0l-13.951,0c-0.367,0 -0.726,0.148 -0.986,0.409c-0.26,0.262 -0.409,0.62 -0.409,0.984l0,11.165c0,0.364 0.149,0.722 0.409,0.984c0.26,0.261 0.619,0.409 0.986,0.409l103.235,0c0.367,0 0.727,-0.148 0.986,-0.409c0.26,-0.262 0.409,-0.62 0.409,-0.984l0,-11.165c0,-0.364 -0.149,-0.722 -0.409,-0.984c-0.259,-0.261 -0.619,-0.409 -0.986,-0.409l-13.021,0l0,1.393Z" style="fill:#231f20;fill-rule:nonzero;"/></g><path d="M3.127,243.463l284.822,0l0,-2.843l-284.822,0" style="fill:#231f20;fill-rule:nonzero;"/></g></svg>